<svg xmlns="http://www.w3.org/2000/svg" width="1068" height="527" viewBox="0 0 1068 527" font-family="ui-monospace,'SFMono-Regular',Menlo,'DejaVu Sans Mono',Consolas,monospace" font-size="14"><rect x="0" y="0" width="1068" height="527" fill="#0b0f0b" rx="12"/><path d="M0 12 A12 12 0 0 1 12 0 H1056 A12 12 0 0 1 1068 12 V36 H0 Z" fill="#141a14"/><circle cx="20" cy="18" r="6" fill="#ff5f57"/><circle cx="40" cy="18" r="6" fill="#febc2e"/><circle cx="60" cy="18" r="6" fill="#28c840"/><text x="534" y="23" fill="#8b978b" text-anchor="middle">wta — parallel AI agents · git worktree + tmux</text><line x1="430" y1="36" x2="430" y2="501" stroke="#1c241c" stroke-width="1"/><text x="16" y="60" fill="#56d364" font-weight="700">Instances</text><line x1="14" y1="70" x2="416" y2="70" stroke="#1c241c" stroke-width="1"/><text x="14" y="92" fill="#8b978b" font-weight="700">▸ ledger-core (3)</text><rect x="8" y="99" width="408" height="46" fill="#16211a" rx="5"/><rect x="8" y="99" width="3" height="46" fill="#3fb950" rx="1.5"/><text x="24" y="114" fill="#56d364">1. certora-solvency</text><text x="408" y="114" font-size="15" fill="#3fb950" text-anchor="end">◐</text><text x="30" y="134" fill="#6f7d6f">Ꮧ main</text><text x="280" y="134" fill="#d7a53f" text-anchor="end">49.9M</text><text x="410" y="134" text-anchor="end" xml:space="preserve"><tspan fill="#3fb950">+2548</tspan><tspan fill="#6f7d6f">,</tspan><tspan fill="#d15b52">-14</tspan></text><text x="24" y="162" fill="#c9d1c9">2. api-refactor</text><text x="408" y="162" font-size="15" fill="#3fb950" text-anchor="end">●</text><text x="30" y="182" fill="#6f7d6f">Ꮧ develop</text><text x="280" y="182" fill="#d7a53f" text-anchor="end">1.3M</text><text x="410" y="182" text-anchor="end" xml:space="preserve"><tspan fill="#3fb950">+214</tspan><tspan fill="#6f7d6f">,</tspan><tspan fill="#d15b52">-9</tspan></text><text x="24" y="210" fill="#c9d1c9">3. flaky-test</text><text x="408" y="210" font-size="15" fill="#d29922" text-anchor="end">▲</text><text x="30" y="230" fill="#6f7d6f">Ꮧ main</text><text x="280" y="230" fill="#d7a53f" text-anchor="end">88k</text><text x="410" y="230" text-anchor="end" xml:space="preserve"><tspan fill="#3fb950">+12</tspan><tspan fill="#6f7d6f">,</tspan><tspan fill="#d15b52">-3</tspan></text><text x="14" y="262" fill="#8b978b" font-weight="700">▸ web-app (2)</text><text x="24" y="284" fill="#c9d1c9">4. dark-mode</text><text x="408" y="284" font-size="15" fill="#3aa0c9" text-anchor="end">✓</text><text x="30" y="304" fill="#6f7d6f">Ꮧ main</text><text x="280" y="304" fill="#d7a53f" text-anchor="end">430k</text><text x="410" y="304" text-anchor="end" xml:space="preserve"><tspan fill="#3fb950">+96</tspan><tspan fill="#6f7d6f">,</tspan><tspan fill="#d15b52">-40</tspan></text><text x="24" y="332" fill="#c9d1c9">5. perf-audit</text><text x="408" y="332" font-size="15" fill="#6e7681" text-anchor="end">✗</text><text x="30" y="352" fill="#6f7d6f">Ꮧ release/2.0</text><text x="280" y="352" fill="#d7a53f" text-anchor="end">2.1M</text><text x="410" y="352" text-anchor="end" xml:space="preserve"><tspan fill="#3fb950">+540</tspan><tspan fill="#6f7d6f">,</tspan><tspan fill="#d15b52">-120</tspan></text><text x="452" y="60" fill="#56d364" font-weight="700">Preview</text><line x1="452" y1="70" x2="508" y2="70" stroke="#3fb950" stroke-width="2"/><text x="530" y="60" fill="#6f7d6f">Diff</text><text x="1048" y="60" fill="#6f7d6f" text-anchor="end">certora-solvency</text><line x1="452" y1="70" x2="1052" y2="70" stroke="#1c241c" stroke-width="1"/><text x="452" y="96" xml:space="preserve"><tspan fill="#3fb950">● </tspan><tspan fill="#c9d1c9">I'll verify the solvency invariant across the vault</tspan></text><text x="452" y="116" xml:space="preserve"><tspan fill="#c9d1c9">  set, then run the Certora spec.</tspan></text><text x="452" y="156" xml:space="preserve"><tspan fill="#3fb950">● </tspan><tspan fill="#c9d1c9">Bash(</tspan><tspan fill="#56d364">certoraRun specs/Solvency.spec</tspan><tspan fill="#c9d1c9">)</tspan></text><text x="452" y="176" xml:space="preserve"><tspan fill="#6f7d6f">  ⎿  </tspan><tspan fill="#8b978b">Verifying rule solvency_preserved …</tspan></text><text x="452" y="196" xml:space="preserve"><tspan fill="#6f7d6f">     </tspan><tspan fill="#3fb950">✓ solvency_preserved</tspan><tspan fill="#8b978b">   ·  12 rules, 0 violations</tspan></text><text x="452" y="236" xml:space="preserve"><tspan fill="#3fb950">● </tspan><tspan fill="#c9d1c9">The invariant holds. Writing the summary to </tspan><tspan fill="#56d364">REPORT.md</tspan><tspan fill="#c9d1c9">.</tspan></text><text x="452" y="276" xml:space="preserve"><tspan fill="#3fb950">● </tspan><tspan fill="#c9d1c9">Update(</tspan><tspan fill="#56d364">REPORT.md</tspan><tspan fill="#c9d1c9">)</tspan></text><text x="452" y="296" xml:space="preserve"><tspan fill="#6f7d6f">  ⎿  </tspan><tspan fill="#3fb950">+18 lines</tspan></text><text x="452" y="336" xml:space="preserve"><tspan fill="#c9d1c9">  </tspan><tspan fill="#3fb950">◐</tspan><tspan fill="#8b978b"> Running…</tspan></text><line x1="452" y1="467" x2="1052" y2="467" stroke="#1c241c" stroke-width="1"/><text x="452" y="487" xml:space="preserve"><tspan fill="#8b978b">cost  </tspan><tspan fill="#d7a53f">49.9M tok</tspan><tspan fill="#6f7d6f">  ·  ~$135.58 est  ·  </tspan><tspan fill="#8b978b">model </tspan><tspan fill="#c9d1c9">opus-4-8</tspan></text><rect x="0" y="501" width="1068" height="26" fill="#10160f"/><path d="M0 501 H1068 V515 A12 12 0 0 1 1056 527 H12 A12 12 0 0 1 0 515 Z" fill="#10160f"/><text x="16" y="519" font-size="12" fill="#6f7d6f">j/k move · Enter attach · Tab preview/diff · i send · m matrix · n new · v verify · q quit</text></svg>