<svg xmlns="http://www.w3.org/2000/svg" width="1068" height="527" viewBox="0 0 1068 527" font-family="ui-monospace,'SFMono-Regular',Menlo,'DejaVu Sans Mono',Consolas,monospace" font-size="14"><rect width="1068" height="527" rx="12" fill="#0b0f0b"/><path d="M0 12 A12 12 0 0 1 12 0 H1056 A12 12 0 0 1 1068 12 V36 H0 Z" fill="#141a14"/><circle cx="20" cy="18" r="6" fill="#ff5f57"/><circle cx="40" cy="18" r="6" fill="#febc2e"/><circle cx="60" cy="18" r="6" fill="#28c840"/><text x="534" y="23" fill="#8b978b" text-anchor="middle">wta — parallel AI agents · git worktree + tmux</text><rect x="26.60" y="54.00" width="8.60" height="17.50" fill="#3fb950"/><rect x="35.20" y="54.00" width="8.60" height="17.50" fill="#3fb950"/><rect x="43.80" y="54.00" width="8.60" height="17.50" fill="#3fb950"/><rect x="52.40" y="54.00" width="8.60" height="17.50" fill="#3fb950"/><rect x="61.00" y="54.00" width="8.60" height="17.50" fill="#3fb950"/><rect x="69.60" y="54.00" width="8.60" height="17.50" fill="#3fb950"/><rect x="78.20" y="54.00" width="8.60" height="17.50" fill="#3fb950"/><rect x="86.80" y="54.00" width="8.60" height="17.50" fill="#3fb950"/><rect x="95.40" y="54.00" width="8.60" height="17.50" fill="#3fb950"/><rect x="104.00" y="54.00" width="8.60" height="17.50" fill="#3fb950"/><rect x="112.60" y="54.00" width="8.60" height="17.50" fill="#3fb950"/><rect x="26.60" y="71.50" width="8.60" height="17.50" fill="#3fb950"/><rect x="35.20" y="71.50" width="8.60" height="17.50" fill="#3fb950"/><rect x="43.80" y="71.50" width="8.60" height="17.50" fill="#3fb950"/><rect x="52.40" y="71.50" width="8.60" height="17.50" fill="#3fb950"/><rect x="61.00" y="71.50" width="8.60" height="17.50" fill="#3fb950"/><rect x="69.60" y="71.50" width="8.60" height="17.50" fill="#3fb950"/><rect x="78.20" y="71.50" width="8.60" height="17.50" fill="#3fb950"/><rect x="86.80" y="71.50" width="8.60" height="17.50" fill="#3fb950"/><rect x="95.40" y="71.50" width="8.60" height="17.50" fill="#3fb950"/><rect x="104.00" y="71.50" width="8.60" height="17.50" fill="#3fb950"/><rect x="112.60" y="71.50" width="8.60" height="17.50" fill="#3fb950"/><rect x="121.20" y="71.50" width="8.60" height="17.50" fill="#3fb950"/><rect x="129.80" y="71.50" width="8.60" height="17.50" fill="#3fb950"/><rect x="138.40" y="71.50" width="8.60" height="17.50" fill="#3fb950"/><rect x="147.00" y="71.50" width="8.60" height="17.50" fill="#3fb950"/><rect x="155.60" y="71.50" width="8.60" height="17.50" fill="#3fb950"/><rect x="164.20" y="71.50" width="8.60" height="17.50" fill="#3fb950"/><rect x="172.80" y="71.50" width="8.60" height="17.50" fill="#3fb950"/><rect x="181.40" y="71.50" width="8.60" height="17.50" fill="#3fb950"/><rect x="190.00" y="71.50" width="8.60" height="17.50" fill="#3fb950"/><rect x="198.60" y="71.50" width="8.60" height="17.50" fill="#3fb950"/><rect x="207.20" y="71.50" width="8.60" height="17.50" fill="#3fb950"/><rect x="215.80" y="71.50" width="8.60" height="17.50" fill="#3fb950"/><rect x="224.40" y="71.50" width="8.60" height="17.50" fill="#3fb950"/><rect x="233.00" y="71.50" width="8.60" height="17.50" fill="#3fb950"/><rect x="241.60" y="71.50" width="8.60" height="17.50" fill="#3fb950"/><rect x="250.20" y="71.50" width="8.60" height="17.50" fill="#3fb950"/><rect x="258.80" y="71.50" width="8.60" height="17.50" fill="#3fb950"/><rect x="267.40" y="71.50" width="8.60" height="17.50" fill="#3fb950"/><rect x="276.00" y="71.50" width="8.60" height="17.50" fill="#3fb950"/><rect x="284.60" y="71.50" width="8.60" height="17.50" fill="#3fb950"/><rect x="293.20" y="71.50" width="8.60" height="17.50" fill="#3fb950"/><rect x="301.80" y="71.50" width="8.60" height="17.50" fill="#3fb950"/><rect x="310.40" y="71.50" width="8.60" height="17.50" fill="#3fb950"/><rect x="26.60" y="89.00" width="8.60" height="17.50" fill="#3fb950"/><rect x="35.20" y="89.00" width="8.60" height="17.50" fill="#3fb950"/><rect x="43.80" y="89.00" width="8.60" height="17.50" fill="#3fb950"/><rect x="52.40" y="89.00" width="8.60" height="17.50" fill="#3fb950"/><rect x="61.00" y="89.00" width="8.60" height="17.50" fill="#3fb950"/><rect x="69.60" y="89.00" width="8.60" height="17.50" fill="#3fb950"/><rect x="78.20" y="89.00" width="8.60" height="17.50" fill="#3fb950"/><rect x="86.80" y="89.00" width="8.60" height="17.50" fill="#3fb950"/><rect x="95.40" y="89.00" width="8.60" height="17.50" fill="#3fb950"/><rect x="104.00" y="89.00" width="8.60" height="17.50" fill="#3fb950"/><rect x="112.60" y="89.00" width="8.60" height="17.50" fill="#3fb950"/><rect x="121.20" y="89.00" width="8.60" height="17.50" fill="#3fb950"/><rect x="129.80" y="89.00" width="8.60" height="17.50" fill="#3fb950"/><rect x="138.40" y="89.00" width="8.60" height="17.50" fill="#3fb950"/><rect x="147.00" y="89.00" width="8.60" height="17.50" fill="#3fb950"/><rect x="155.60" y="89.00" width="8.60" height="17.50" fill="#3fb950"/><rect x="164.20" y="89.00" width="8.60" height="17.50" fill="#3fb950"/><rect x="172.80" y="89.00" width="8.60" height="17.50" fill="#3fb950"/><rect x="181.40" y="89.00" width="8.60" height="17.50" fill="#3fb950"/><rect x="190.00" y="89.00" width="8.60" height="17.50" fill="#3fb950"/><rect x="198.60" y="89.00" width="8.60" height="17.50" fill="#3fb950"/><rect x="207.20" y="89.00" width="8.60" height="17.50" fill="#3fb950"/><rect x="215.80" y="89.00" width="8.60" height="17.50" fill="#3fb950"/><rect x="224.40" y="89.00" width="8.60" height="17.50" fill="#3fb950"/><rect x="233.00" y="89.00" width="8.60" height="17.50" fill="#3fb950"/><rect x="241.60" y="89.00" width="8.60" height="17.50" fill="#3fb950"/><rect x="250.20" y="89.00" width="8.60" height="17.50" fill="#3fb950"/><rect x="258.80" y="89.00" width="8.60" height="17.50" fill="#3fb950"/><rect x="267.40" y="89.00" width="8.60" height="17.50" fill="#3fb950"/><rect x="276.00" y="89.00" width="8.60" height="17.50" fill="#3fb950"/><rect x="284.60" y="89.00" width="8.60" height="17.50" fill="#3fb950"/><rect x="293.20" y="89.00" width="8.60" height="17.50" fill="#3fb950"/><rect x="301.80" y="89.00" width="8.60" height="17.50" fill="#3fb950"/><rect x="310.40" y="89.00" width="8.60" height="17.50" fill="#3fb950"/><rect x="26.60" y="106.50" width="8.60" height="17.50" fill="#3fb950"/><rect x="35.20" y="106.50" width="8.60" height="17.50" fill="#3fb950"/><rect x="43.80" y="106.50" width="8.60" height="17.50" fill="#3fb950"/><rect x="52.40" y="106.50" width="8.60" height="17.50" fill="#3fb950"/><rect x="61.00" y="106.50" width="8.60" height="17.50" fill="#3fb950"/><rect x="69.60" y="106.50" width="8.60" height="17.50" fill="#3fb950"/><rect x="78.20" y="106.50" width="8.60" height="17.50" fill="#3fb950"/><rect x="86.80" y="106.50" width="8.60" height="17.50" fill="#3fb950"/><rect x="95.40" y="106.50" width="8.60" height="17.50" fill="#3fb950"/><rect x="104.00" y="106.50" width="8.60" height="17.50" fill="#3fb950"/><rect x="112.60" y="106.50" width="8.60" height="17.50" fill="#3fb950"/><rect x="121.20" y="106.50" width="8.60" height="17.50" fill="#3fb950"/><rect x="129.80" y="106.50" width="8.60" height="17.50" fill="#3fb950"/><rect x="138.40" y="106.50" width="8.60" height="17.50" fill="#3fb950"/><rect x="147.00" y="106.50" width="8.60" height="17.50" fill="#3fb950"/><rect x="155.60" y="106.50" width="8.60" height="17.50" fill="#3fb950"/><rect x="164.20" y="106.50" width="8.60" height="17.50" fill="#3fb950"/><rect x="172.80" y="106.50" width="8.60" height="17.50" fill="#3fb950"/><rect x="181.40" y="106.50" width="8.60" height="17.50" fill="#3fb950"/><rect x="190.00" y="106.50" width="8.60" height="17.50" fill="#3fb950"/><rect x="198.60" y="106.50" width="8.60" height="17.50" fill="#3fb950"/><rect x="207.20" y="106.50" width="8.60" height="17.50" fill="#3fb950"/><rect x="215.80" y="106.50" width="8.60" height="17.50" fill="#3fb950"/><rect x="224.40" y="106.50" width="8.60" height="17.50" fill="#3fb950"/><rect x="233.00" y="106.50" width="8.60" height="17.50" fill="#3fb950"/><rect x="241.60" y="106.50" width="8.60" height="17.50" fill="#3fb950"/><rect x="250.20" y="106.50" width="8.60" height="17.50" fill="#3fb950"/><rect x="258.80" y="106.50" width="8.60" height="17.50" fill="#3fb950"/><rect x="267.40" y="106.50" width="8.60" height="17.50" fill="#3fb950"/><rect x="276.00" y="106.50" width="8.60" height="17.50" fill="#3fb950"/><rect x="284.60" y="106.50" width="8.60" height="17.50" fill="#3fb950"/><rect x="293.20" y="106.50" width="8.60" height="17.50" fill="#3fb950"/><rect x="301.80" y="106.50" width="8.60" height="17.50" fill="#3fb950"/><rect x="310.40" y="106.50" width="8.60" height="17.50" fill="#3fb950"/><text x="18.00" y="65.48" fill="#3fb950" textLength="8.60" lengthAdjust="spacingAndGlyphs" xml:space="preserve">┌</text><text x="26.60" y="65.48" fill="#0b0f0b" textLength="94.60" lengthAdjust="spacingAndGlyphs" xml:space="preserve"> Instances </text><text x="121.20" y="65.48" fill="#3fb950" textLength="928.80" lengthAdjust="spacingAndGlyphs" xml:space="preserve">───────────────────────┐┌ auth-refactor ───────────────────────────────────────────────────────────────────┐</text><text x="18.00" y="82.98" fill="#3fb950" textLength="8.60" lengthAdjust="spacingAndGlyphs" xml:space="preserve">│</text><text x="26.60" y="82.98" fill="#0b0f0b" textLength="292.40" lengthAdjust="spacingAndGlyphs" xml:space="preserve"> 1. auth-refactor               ⠋ </text><text x="319.00" y="82.98" fill="#3fb950" textLength="17.20" lengthAdjust="spacingAndGlyphs" xml:space="preserve">││</text><text x="336.20" y="82.98" fill="#6e7681" textLength="94.60" lengthAdjust="spacingAndGlyphs" xml:space="preserve"> Preview   </text><text x="430.80" y="82.98" fill="#3fb950" textLength="34.40" lengthAdjust="spacingAndGlyphs" xml:space="preserve">Diff</text><text x="1041.40" y="82.98" fill="#3fb950" textLength="8.60" lengthAdjust="spacingAndGlyphs" xml:space="preserve">│</text><text x="18.00" y="100.48" fill="#3fb950" textLength="8.60" lengthAdjust="spacingAndGlyphs" xml:space="preserve">│</text><text x="26.60" y="100.48" fill="#0b0f0b" textLength="292.40" lengthAdjust="spacingAndGlyphs" xml:space="preserve">   Ꮧ-agent/auth-refactor +212,-48 </text><text x="319.00" y="100.48" fill="#3fb950" textLength="17.20" lengthAdjust="spacingAndGlyphs" xml:space="preserve">││</text><text x="336.20" y="100.48" fill="#57e389" textLength="137.60" lengthAdjust="spacingAndGlyphs" xml:space="preserve">212 additions(+)</text><text x="491.00" y="100.48" fill="#ff7b72" textLength="129.00" lengthAdjust="spacingAndGlyphs" xml:space="preserve">48 deletions(-)</text><text x="1041.40" y="100.48" fill="#3fb950" textLength="8.60" lengthAdjust="spacingAndGlyphs" xml:space="preserve">│</text><text x="18.00" y="117.98" fill="#3fb950" textLength="8.60" lengthAdjust="spacingAndGlyphs" xml:space="preserve">│</text><text x="319.00" y="117.98" fill="#3fb950" textLength="292.40" lengthAdjust="spacingAndGlyphs" xml:space="preserve">││@@ -14,7 +14,9 @@ impl Session {</text><text x="1041.40" y="117.98" fill="#3fb950" textLength="8.60" lengthAdjust="spacingAndGlyphs" xml:space="preserve">│</text><text x="18.00" y="135.48" fill="#3fb950" textLength="8.60" lengthAdjust="spacingAndGlyphs" xml:space="preserve">│</text><text x="26.60" y="135.48" fill="#cdd6cd" textLength="275.20" lengthAdjust="spacingAndGlyphs" xml:space="preserve"> 2. flaky-test                  </text><text x="301.80" y="135.48" fill="#e3b341" textLength="17.20" lengthAdjust="spacingAndGlyphs" xml:space="preserve">▲ </text><text x="319.00" y="135.48" fill="#3fb950" textLength="17.20" lengthAdjust="spacingAndGlyphs" xml:space="preserve">││</text><text x="336.20" y="135.48" fill="#cdd6cd" textLength="705.20" lengthAdjust="spacingAndGlyphs" xml:space="preserve">     pub fn refresh(&amp;mut self) -&gt; Result&lt;()&gt; {                                    </text><text x="1041.40" y="135.48" fill="#3fb950" textLength="8.60" lengthAdjust="spacingAndGlyphs" xml:space="preserve">│</text><text x="18.00" y="152.98" fill="#3fb950" textLength="8.60" lengthAdjust="spacingAndGlyphs" xml:space="preserve">│</text><text x="26.60" y="152.98" fill="#6e7681" textLength="180.60" lengthAdjust="spacingAndGlyphs" xml:space="preserve">   Ꮧ-agent/flaky-test</text><text x="258.80" y="152.98" fill="#3fb950" textLength="25.80" lengthAdjust="spacingAndGlyphs" xml:space="preserve">+12</text><text x="284.60" y="152.98" fill="#6e7681" textLength="8.60" lengthAdjust="spacingAndGlyphs" xml:space="preserve">,</text><text x="293.20" y="152.98" fill="#ff7b72" textLength="25.80" lengthAdjust="spacingAndGlyphs" xml:space="preserve">-3 </text><text x="319.00" y="152.98" fill="#3fb950" textLength="17.20" lengthAdjust="spacingAndGlyphs" xml:space="preserve">││</text><text x="336.20" y="152.98" fill="#ff7b72" textLength="318.20" lengthAdjust="spacingAndGlyphs" xml:space="preserve">-        self.token = fetch_token()?;</text><text x="1041.40" y="152.98" fill="#3fb950" textLength="8.60" lengthAdjust="spacingAndGlyphs" xml:space="preserve">│</text><text x="18.00" y="170.48" fill="#3fb950" textLength="8.60" lengthAdjust="spacingAndGlyphs" xml:space="preserve">│</text><text x="319.00" y="170.48" fill="#3fb950" textLength="17.20" lengthAdjust="spacingAndGlyphs" xml:space="preserve">││</text><text x="336.20" y="170.48" fill="#57e389" textLength="498.80" lengthAdjust="spacingAndGlyphs" xml:space="preserve">+        // refresh in the background with retry + backoff</text><text x="1041.40" y="170.48" fill="#3fb950" textLength="8.60" lengthAdjust="spacingAndGlyphs" xml:space="preserve">│</text><text x="18.00" y="187.98" fill="#3fb950" textLength="8.60" lengthAdjust="spacingAndGlyphs" xml:space="preserve">│</text><text x="26.60" y="187.98" fill="#cdd6cd" textLength="275.20" lengthAdjust="spacingAndGlyphs" xml:space="preserve"> 3. payments-api                </text><text x="301.80" y="187.98" fill="#3fb950" textLength="34.40" lengthAdjust="spacingAndGlyphs" xml:space="preserve">● ││</text><text x="336.20" y="187.98" fill="#57e389" textLength="430.00" lengthAdjust="spacingAndGlyphs" xml:space="preserve">+        self.token = retry(3, || fetch_token())?;</text><text x="1041.40" y="187.98" fill="#3fb950" textLength="8.60" lengthAdjust="spacingAndGlyphs" xml:space="preserve">│</text><text x="18.00" y="205.48" fill="#3fb950" textLength="8.60" lengthAdjust="spacingAndGlyphs" xml:space="preserve">│</text><text x="26.60" y="205.48" fill="#6e7681" textLength="197.80" lengthAdjust="spacingAndGlyphs" xml:space="preserve">   Ꮧ-agent/payments-api</text><text x="258.80" y="205.48" fill="#3fb950" textLength="25.80" lengthAdjust="spacingAndGlyphs" xml:space="preserve">+64</text><text x="284.60" y="205.48" fill="#6e7681" textLength="8.60" lengthAdjust="spacingAndGlyphs" xml:space="preserve">,</text><text x="293.20" y="205.48" fill="#ff7b72" textLength="25.80" lengthAdjust="spacingAndGlyphs" xml:space="preserve">-8 </text><text x="319.00" y="205.48" fill="#3fb950" textLength="17.20" lengthAdjust="spacingAndGlyphs" xml:space="preserve">││</text><text x="336.20" y="205.48" fill="#57e389" textLength="378.40" lengthAdjust="spacingAndGlyphs" xml:space="preserve">+        self.refreshed_at = Instant::now();</text><text x="1041.40" y="205.48" fill="#3fb950" textLength="8.60" lengthAdjust="spacingAndGlyphs" xml:space="preserve">│</text><text x="18.00" y="222.98" fill="#3fb950" textLength="8.60" lengthAdjust="spacingAndGlyphs" xml:space="preserve">│</text><text x="319.00" y="222.98" fill="#3fb950" textLength="17.20" lengthAdjust="spacingAndGlyphs" xml:space="preserve">││</text><text x="336.20" y="222.98" fill="#cdd6cd" textLength="705.20" lengthAdjust="spacingAndGlyphs" xml:space="preserve">         Ok(())                                                                   </text><text x="1041.40" y="222.98" fill="#3fb950" textLength="8.60" lengthAdjust="spacingAndGlyphs" xml:space="preserve">│</text><text x="18.00" y="240.48" fill="#3fb950" textLength="8.60" lengthAdjust="spacingAndGlyphs" xml:space="preserve">│</text><text x="26.60" y="240.48" fill="#cdd6cd" textLength="275.20" lengthAdjust="spacingAndGlyphs" xml:space="preserve"> 4. docs-site                   </text><text x="301.80" y="240.48" fill="#ff7b72" textLength="17.20" lengthAdjust="spacingAndGlyphs" xml:space="preserve">✗ </text><text x="319.00" y="240.48" fill="#3fb950" textLength="17.20" lengthAdjust="spacingAndGlyphs" xml:space="preserve">││</text><text x="336.20" y="240.48" fill="#cdd6cd" textLength="705.20" lengthAdjust="spacingAndGlyphs" xml:space="preserve">     }                                                                            </text><text x="1041.40" y="240.48" fill="#3fb950" textLength="8.60" lengthAdjust="spacingAndGlyphs" xml:space="preserve">│</text><text x="18.00" y="257.98" fill="#3fb950" textLength="8.60" lengthAdjust="spacingAndGlyphs" xml:space="preserve">│</text><text x="26.60" y="257.98" fill="#6e7681" textLength="172.00" lengthAdjust="spacingAndGlyphs" xml:space="preserve">   Ꮧ-agent/docs-site</text><text x="267.40" y="257.98" fill="#3fb950" textLength="17.20" lengthAdjust="spacingAndGlyphs" xml:space="preserve">+5</text><text x="284.60" y="257.98" fill="#6e7681" textLength="8.60" lengthAdjust="spacingAndGlyphs" xml:space="preserve">,</text><text x="293.20" y="257.98" fill="#ff7b72" textLength="25.80" lengthAdjust="spacingAndGlyphs" xml:space="preserve">-0 </text><text x="319.00" y="257.98" fill="#3fb950" textLength="266.60" lengthAdjust="spacingAndGlyphs" xml:space="preserve">││@@ -63,0 +65,6 @@ mod tests {</text><text x="1041.40" y="257.98" fill="#3fb950" textLength="8.60" lengthAdjust="spacingAndGlyphs" xml:space="preserve">│</text><text x="18.00" y="275.48" fill="#3fb950" textLength="8.60" lengthAdjust="spacingAndGlyphs" xml:space="preserve">│</text><text x="319.00" y="275.48" fill="#3fb950" textLength="17.20" lengthAdjust="spacingAndGlyphs" xml:space="preserve">││</text><text x="336.20" y="275.48" fill="#57e389" textLength="103.20" lengthAdjust="spacingAndGlyphs" xml:space="preserve">+    #[test]</text><text x="1041.40" y="275.48" fill="#3fb950" textLength="8.60" lengthAdjust="spacingAndGlyphs" xml:space="preserve">│</text><text x="18.00" y="292.98" fill="#3fb950" textLength="8.60" lengthAdjust="spacingAndGlyphs" xml:space="preserve">│</text><text x="319.00" y="292.98" fill="#3fb950" textLength="17.20" lengthAdjust="spacingAndGlyphs" xml:space="preserve">││</text><text x="336.20" y="292.98" fill="#57e389" textLength="326.80" lengthAdjust="spacingAndGlyphs" xml:space="preserve">+    fn refresh_retries_on_timeout() {</text><text x="1041.40" y="292.98" fill="#3fb950" textLength="8.60" lengthAdjust="spacingAndGlyphs" xml:space="preserve">│</text><text x="18.00" y="310.48" fill="#3fb950" textLength="8.60" lengthAdjust="spacingAndGlyphs" xml:space="preserve">│</text><text x="319.00" y="310.48" fill="#3fb950" textLength="17.20" lengthAdjust="spacingAndGlyphs" xml:space="preserve">││</text><text x="336.20" y="310.48" fill="#57e389" textLength="344.00" lengthAdjust="spacingAndGlyphs" xml:space="preserve">+        let mut s = Session::expired();</text><text x="1041.40" y="310.48" fill="#3fb950" textLength="8.60" lengthAdjust="spacingAndGlyphs" xml:space="preserve">│</text><text x="18.00" y="327.98" fill="#3fb950" textLength="8.60" lengthAdjust="spacingAndGlyphs" xml:space="preserve">│</text><text x="319.00" y="327.98" fill="#3fb950" textLength="17.20" lengthAdjust="spacingAndGlyphs" xml:space="preserve">││</text><text x="336.20" y="327.98" fill="#57e389" textLength="326.80" lengthAdjust="spacingAndGlyphs" xml:space="preserve">+        assert!(s.refresh().is_ok());</text><text x="1041.40" y="327.98" fill="#3fb950" textLength="8.60" lengthAdjust="spacingAndGlyphs" xml:space="preserve">│</text><text x="18.00" y="345.48" fill="#3fb950" textLength="8.60" lengthAdjust="spacingAndGlyphs" xml:space="preserve">│</text><text x="319.00" y="345.48" fill="#3fb950" textLength="17.20" lengthAdjust="spacingAndGlyphs" xml:space="preserve">││</text><text x="336.20" y="345.48" fill="#57e389" textLength="51.60" lengthAdjust="spacingAndGlyphs" xml:space="preserve">+    }</text><text x="1041.40" y="345.48" fill="#3fb950" textLength="8.60" lengthAdjust="spacingAndGlyphs" xml:space="preserve">│</text><text x="18.00" y="362.98" fill="#3fb950" textLength="8.60" lengthAdjust="spacingAndGlyphs" xml:space="preserve">│</text><text x="319.00" y="362.98" fill="#3fb950" textLength="17.20" lengthAdjust="spacingAndGlyphs" xml:space="preserve">││</text><text x="1041.40" y="362.98" fill="#3fb950" textLength="8.60" lengthAdjust="spacingAndGlyphs" xml:space="preserve">│</text><text x="18.00" y="380.48" fill="#3fb950" textLength="8.60" lengthAdjust="spacingAndGlyphs" xml:space="preserve">│</text><text x="319.00" y="380.48" fill="#3fb950" textLength="17.20" lengthAdjust="spacingAndGlyphs" xml:space="preserve">││</text><text x="1041.40" y="380.48" fill="#3fb950" textLength="8.60" lengthAdjust="spacingAndGlyphs" xml:space="preserve">│</text><text x="18.00" y="397.98" fill="#3fb950" textLength="8.60" lengthAdjust="spacingAndGlyphs" xml:space="preserve">│</text><text x="319.00" y="397.98" fill="#3fb950" textLength="17.20" lengthAdjust="spacingAndGlyphs" xml:space="preserve">││</text><text x="1041.40" y="397.98" fill="#3fb950" textLength="8.60" lengthAdjust="spacingAndGlyphs" xml:space="preserve">│</text><text x="18.00" y="415.48" fill="#3fb950" textLength="8.60" lengthAdjust="spacingAndGlyphs" xml:space="preserve">│</text><text x="319.00" y="415.48" fill="#3fb950" textLength="17.20" lengthAdjust="spacingAndGlyphs" xml:space="preserve">││</text><text x="1041.40" y="415.48" fill="#3fb950" textLength="8.60" lengthAdjust="spacingAndGlyphs" xml:space="preserve">│</text><text x="18.00" y="432.98" fill="#3fb950" textLength="8.60" lengthAdjust="spacingAndGlyphs" xml:space="preserve">│</text><text x="319.00" y="432.98" fill="#3fb950" textLength="17.20" lengthAdjust="spacingAndGlyphs" xml:space="preserve">││</text><text x="1041.40" y="432.98" fill="#3fb950" textLength="8.60" lengthAdjust="spacingAndGlyphs" xml:space="preserve">│</text><text x="18.00" y="450.48" fill="#3fb950" textLength="8.60" lengthAdjust="spacingAndGlyphs" xml:space="preserve">│</text><text x="319.00" y="450.48" fill="#3fb950" textLength="17.20" lengthAdjust="spacingAndGlyphs" xml:space="preserve">││</text><text x="1041.40" y="450.48" fill="#3fb950" textLength="8.60" lengthAdjust="spacingAndGlyphs" xml:space="preserve">│</text><text x="18.00" y="467.98" fill="#3fb950" textLength="1032.00" lengthAdjust="spacingAndGlyphs" xml:space="preserve">└──────────────────────────────────┘└──────────────────────────────────────────────────────────────────────────────────┘</text><text x="172.80" y="485.48" fill="#3fb950" textLength="25.80" lengthAdjust="spacingAndGlyphs" xml:space="preserve">n/N</text><text x="198.60" y="485.48" fill="#6e7681" textLength="51.60" lengthAdjust="spacingAndGlyphs" xml:space="preserve"> new  </text><text x="250.20" y="485.48" fill="#3fb950" textLength="8.60" lengthAdjust="spacingAndGlyphs" xml:space="preserve">s</text><text x="258.80" y="485.48" fill="#6e7681" textLength="60.20" lengthAdjust="spacingAndGlyphs" xml:space="preserve"> stop  </text><text x="319.00" y="485.48" fill="#3fb950" textLength="8.60" lengthAdjust="spacingAndGlyphs" xml:space="preserve">D</text><text x="327.60" y="485.48" fill="#6e7681" textLength="86.00" lengthAdjust="spacingAndGlyphs" xml:space="preserve"> kill  │  </text><text x="413.60" y="485.48" fill="#3fb950" textLength="25.80" lengthAdjust="spacingAndGlyphs" xml:space="preserve">↵/o</text><text x="439.40" y="485.48" fill="#6e7681" textLength="77.40" lengthAdjust="spacingAndGlyphs" xml:space="preserve"> attach  </text><text x="516.80" y="485.48" fill="#3fb950" textLength="8.60" lengthAdjust="spacingAndGlyphs" xml:space="preserve">i</text><text x="525.40" y="485.48" fill="#6e7681" textLength="60.20" lengthAdjust="spacingAndGlyphs" xml:space="preserve"> send  </text><text x="585.60" y="485.48" fill="#3fb950" textLength="8.60" lengthAdjust="spacingAndGlyphs" xml:space="preserve">p</text><text x="594.20" y="485.48" fill="#6e7681" textLength="86.00" lengthAdjust="spacingAndGlyphs" xml:space="preserve"> push  │  </text><text x="680.20" y="485.48" fill="#3fb950" textLength="25.80" lengthAdjust="spacingAndGlyphs" xml:space="preserve">tab</text><text x="706.00" y="485.48" fill="#6e7681" textLength="77.40" lengthAdjust="spacingAndGlyphs" xml:space="preserve"> switch  </text><text x="783.40" y="485.48" fill="#3fb950" textLength="8.60" lengthAdjust="spacingAndGlyphs" xml:space="preserve">?</text><text x="792.00" y="485.48" fill="#6e7681" textLength="60.20" lengthAdjust="spacingAndGlyphs" xml:space="preserve"> help  </text><text x="852.20" y="485.48" fill="#3fb950" textLength="8.60" lengthAdjust="spacingAndGlyphs" xml:space="preserve">q</text><text x="860.80" y="485.48" fill="#6e7681" textLength="43.00" lengthAdjust="spacingAndGlyphs" xml:space="preserve"> quit</text></svg>